<svg width="243.5" height="93.2" viewBox="0 0 243.5 93.2" xmlns="http://www.w3.org/2000/svg"><g id="svgGroup" stroke-linecap="round" fill-rule="evenodd" font-size="9pt" stroke="#000" stroke-width="0.25mm" fill="#000" style="stroke:#000;stroke-width:0.25mm;fill:#000"><path d="M 192.7 91.2 L 194.7 83.7 A 9.908 9.908 0 0 0 195.865 84.274 Q 196.688 84.619 197.7 84.9 A 13.514 13.514 0 0 0 199.979 85.317 A 17.358 17.358 0 0 0 201.7 85.4 Q 205.9 85.4 209.2 82.7 A 12.003 12.003 0 0 0 211.133 80.639 Q 212.881 78.328 214.541 74.475 A 58.58 58.58 0 0 0 215.5 72.1 L 217.8 66.1 L 213 66.1 L 192.7 20.4 L 200.7 16.8 L 220.1 60.1 L 235.2 17.2 L 243.5 20.4 L 224.4 72.6 A 71.728 71.728 0 0 1 222.347 77.686 Q 221.245 80.126 220.078 82.114 A 30.86 30.86 0 0 1 218.1 85.1 A 24.268 24.268 0 0 1 215.222 88.311 Q 213.308 90.079 211.205 91.118 A 14.737 14.737 0 0 1 210.6 91.4 Q 206.5 93.2 201.5 93.2 Q 198.5 93.2 196.25 92.6 Q 194 92 192.7 91.2 Z M 110.2 65.8 L 114 58.3 A 18.557 18.557 0 0 0 117.144 60.426 Q 118.698 61.27 120.55 61.95 A 24.073 24.073 0 0 0 128.161 63.387 A 27.464 27.464 0 0 0 129 63.4 Q 134.392 63.4 137.235 61.685 A 7.738 7.738 0 0 0 137.45 61.55 Q 140.3 59.7 140.3 56.8 A 7.123 7.123 0 0 0 139.986 54.653 A 6.212 6.212 0 0 0 139.25 53.1 A 6.384 6.384 0 0 0 138.321 52.006 Q 137.307 51.034 135.634 50.081 A 22.3 22.3 0 0 0 135.4 49.95 A 28.462 28.462 0 0 0 133.406 48.957 Q 131.29 47.995 128.301 46.946 A 103.602 103.602 0 0 0 127.3 46.6 A 46.616 46.616 0 0 1 122.902 44.857 Q 120.788 43.883 119.112 42.795 A 19.335 19.335 0 0 1 116.35 40.65 A 11.324 11.324 0 0 1 113.056 34.654 A 16.794 16.794 0 0 1 112.7 31.1 Q 112.7 25.1 117.95 20.95 Q 122.354 17.469 129.608 16.908 A 37.527 37.527 0 0 1 132.5 16.8 A 40.794 40.794 0 0 1 136.946 17.031 Q 139.254 17.284 141.27 17.815 A 25.234 25.234 0 0 1 141.4 17.85 Q 145.3 18.9 148.4 20.5 L 145.9 27.9 Q 143.2 26.3 139.75 25.3 A 25.024 25.024 0 0 0 135.267 24.453 A 31.837 31.837 0 0 0 132.1 24.3 A 20.632 20.632 0 0 0 129.163 24.495 Q 126.077 24.94 124.2 26.4 A 9.322 9.322 0 0 0 122.842 27.673 Q 122.14 28.492 121.805 29.365 A 4.529 4.529 0 0 0 121.5 31 A 4.921 4.921 0 0 0 122.995 34.552 A 7.082 7.082 0 0 0 123.6 35.1 A 9.88 9.88 0 0 0 124.9 35.969 Q 127.173 37.271 131.598 38.734 A 84.459 84.459 0 0 0 131.8 38.8 A 67.753 67.753 0 0 1 136.862 40.698 Q 142.789 43.217 145.6 46.1 Q 149.5 50.1 149.5 56.1 Q 149.5 62.848 144.249 66.855 A 16.618 16.618 0 0 1 143.85 67.15 Q 139.11 70.547 131.662 71.095 A 40.423 40.423 0 0 1 128.7 71.2 Q 122.8 71.2 118.05 69.7 A 30.883 30.883 0 0 1 114.21 68.215 Q 112.229 67.284 110.648 66.136 A 18.229 18.229 0 0 1 110.2 65.8 Z M 31 70 L 21.5 70 L 21.5 8.4 L 0 8.4 L 0 0 L 52.5 0 L 52.5 8.4 L 31 8.4 L 31 70 Z M 163.5 52.1 L 163.5 27.7 L 154.5 27.7 L 154.5 19.9 L 163.7 19.9 L 165.6 3.5 L 172.5 3.5 L 172.5 19.9 L 186.9 19.9 L 186.9 27.7 L 172.5 27.7 L 172.5 52.8 A 21.559 21.559 0 0 0 172.668 55.596 Q 173.141 59.202 174.95 60.9 Q 177.4 63.2 180.8 63.2 Q 183.3 63.2 185.55 62.4 Q 187.8 61.6 189.7 60.5 L 192.2 67.7 A 18.546 18.546 0 0 1 190.582 68.556 Q 189.78 68.935 188.834 69.308 A 43.365 43.365 0 0 1 186.8 70.05 Q 183.4 71.2 179.7 71.2 Q 172.2 71.2 167.85 66.25 A 16.116 16.116 0 0 1 164.622 60.348 Q 163.859 57.917 163.615 54.98 A 34.777 34.777 0 0 1 163.5 52.1 Z M 88.6 22.2 L 88.6 18 L 96.8 18 L 96.8 57.4 A 12.15 12.15 0 0 0 96.902 59.036 Q 97.234 61.47 98.65 62.35 Q 100.5 63.5 102.7 63.5 L 100.8 70.5 A 17.722 17.722 0 0 1 96.535 70.028 Q 90.898 68.628 89.303 63.08 A 13.59 13.59 0 0 1 89.2 62.7 A 21.307 21.307 0 0 1 86.09 66.126 A 28.498 28.498 0 0 1 82.95 68.55 Q 79 71.2 72.9 71.2 Q 66.4 71.2 61.1 67.9 A 22.947 22.947 0 0 1 53.687 60.373 A 27.923 27.923 0 0 1 52.65 58.55 A 27.228 27.228 0 0 1 50.02 50.608 A 36.644 36.644 0 0 1 49.5 44.3 A 33.142 33.142 0 0 1 50.497 36.031 A 27.968 27.968 0 0 1 52.65 30.3 Q 55.8 24.1 61.35 20.45 A 22.297 22.297 0 0 1 72.545 16.844 A 27.388 27.388 0 0 1 74.1 16.8 A 22.584 22.584 0 0 1 78.894 17.29 A 18.703 18.703 0 0 1 82.25 18.35 A 26.002 26.002 0 0 1 86.537 20.644 A 22.103 22.103 0 0 1 88.6 22.2 Z M 87.8 56.7 L 87.8 28.8 Q 85.1 26.9 81.85 25.75 Q 78.6 24.6 75 24.6 A 15.924 15.924 0 0 0 70.029 25.354 A 14.024 14.024 0 0 0 66.55 27.05 A 16.301 16.301 0 0 0 61.531 32.474 A 19.962 19.962 0 0 0 60.8 33.85 A 20.663 20.663 0 0 0 59.047 39.527 A 27.678 27.678 0 0 0 58.7 44 Q 58.7 49.6 60.8 53.95 A 17.602 17.602 0 0 0 63.906 58.496 A 15.697 15.697 0 0 0 66.6 60.75 Q 70.3 63.2 74.9 63.2 Q 78.7 63.2 82.1 61.35 Q 85.5 59.5 87.8 56.7 Z" vector-effect="non-scaling-stroke"/></g></svg>